<svg width="84" height="84" viewBox="0 0 84 84" fill="none" xmlns="http://www.w3.org/2000/svg">
<g clip-path="url(#clip0_0_11)">
<path d="M56.0708 58.4528C52.2029 54.5848 46.9568 52.4119 41.4868 52.4119C36.0167 52.4119 31.4777 53.8777 27.6098 57.7457" stroke="black"/>
<circle cx="30.1045" cy="45.9848" r="3.6123" fill="black"/>
<circle cx="53.5742" cy="45.9848" r="3.6123" fill="black"/>
<path d="M71.4759 18.2474L71.4761 18.2476C72.1113 18.8828 72.4644 19.7443 72.4644 20.6337V21.1225H52.7144V1.37253H53.2032C54.11 1.37253 54.9711 1.72641 55.6055 2.36085L71.4759 18.2474ZM46.5269 1.37253V22.9194C46.5269 25.3354 48.5015 27.31 50.9175 27.31H72.4644V79.9819C72.4644 81.8618 70.9537 83.3725 69.0737 83.3725H14.605C12.7251 83.3725 11.2144 81.8618 11.2144 79.9819V4.76315C11.2144 2.88324 12.7251 1.37253 14.605 1.37253H46.5269Z" stroke="black"/>
</g>
<defs>
<clipPath id="clip0_0_11">
<rect width="83" height="83" fill="white" transform="translate(0.339371 0.872528)"/>
</clipPath>
</defs>
</svg>
